<svg width="386" height="151" viewBox="0 0 386 151" fill="none" xmlns="http://www.w3.org/2000/svg">
<path d="M0.5 3C0.5 1.34314 1.84315 0 3.5 0H46.7442C48.401 0 49.7442 1.34315 49.7442 3V8.21026C49.7442 9.62308 50.8895 10.7684 52.3023 10.7684C53.7151 10.7684 54.8605 9.62308 54.8605 8.21026V3C54.8605 1.34314 56.2036 0 57.8605 0H317.267C318.924 0 320.267 1.34315 320.267 3V8.53003C320.267 9.76624 321.27 10.7684 322.506 10.7684C323.742 10.7684 324.744 9.76624 324.744 8.53002V3C324.744 1.34314 326.087 0 327.744 0H382.5C384.157 0 385.5 1.34315 385.5 3V124.966C385.5 126.623 384.157 127.966 382.5 127.966H331.438C330.827 127.966 330.231 128.152 329.729 128.5L298.015 150.466C297.513 150.814 296.917 151 296.307 151H89.6787C89.0773 151 88.4899 150.819 87.9925 150.481L55.6238 128.485C55.1264 128.147 54.5389 127.966 53.9376 127.966H3.5C1.84315 127.966 0.5 126.623 0.5 124.966V3Z" fill="#CA9E09"/>
<path d="M140.313 76H124.913V72.92H133.713V58.18H133.273L126.233 65.22L124.033 62.976L132.569 54.44H137.233V72.92H140.313V76ZM163.172 72.92C163.172 73.7707 162.864 74.504 162.248 75.12C161.662 75.7067 160.943 76 160.092 76H150.852C150.002 76 149.268 75.7067 148.652 75.12C148.066 74.504 147.772 73.7707 147.772 72.92V57.52C147.772 56.6693 148.066 55.9507 148.652 55.364C149.268 54.748 150.002 54.44 150.852 54.44H160.092C160.943 54.44 161.662 54.748 162.248 55.364C162.864 55.9507 163.172 56.6693 163.172 57.52V72.92ZM159.652 72.92V57.52H151.292V72.92H159.652ZM186.032 72.92C186.032 73.7707 185.724 74.504 185.108 75.12C184.521 75.7067 183.802 76 182.952 76H173.712C172.861 76 172.128 75.7067 171.512 75.12C170.925 74.504 170.632 73.7707 170.632 72.92V57.52C170.632 56.6693 170.925 55.9507 171.512 55.364C172.128 54.748 172.861 54.44 173.712 54.44H182.952C183.802 54.44 184.521 54.748 185.108 55.364C185.724 55.9507 186.032 56.6693 186.032 57.52V72.92ZM182.512 72.92V57.52H174.152V72.92H182.512ZM217.92 76H202.52V60.6L205.6 57.52H202.52V54.44H217.92V57.52H206.04V66.32L208.68 63.68H217.92V66.76H206.04V72.92H217.92V76ZM237.06 57.52H230.68V76H227.16V57.52H220.78V54.44H237.06V57.52ZM259.715 76H256.195V66.76H244.755V76H241.235V54.44H244.755V66.32L247.395 63.68H256.195V54.44H259.715V76Z" fill="#1B170A"/>
<path d="M149.108 107H135.812L136.788 104.44H145.748L146.26 103.112H137.3L139.188 98.2L137.94 96.664H153.076L152.084 99.24H143.124L142.628 100.552H151.588L149.108 107ZM155.032 98.2L153.784 96.664H168.936L164.968 107H151.656L155.032 98.2ZM158.968 99.24L156.968 104.44H161.608L163.608 99.24H158.968ZM174.827 99.24L174.331 100.552H182.619L181.627 103.112H173.339L171.851 107H167.515L170.891 98.2L169.643 96.664H184.107L183.115 99.24H174.827ZM184.383 99.24L185.375 96.664H198.687L197.695 99.24H193.215L190.239 107H185.903L188.879 99.24H184.383ZM213.186 99.24L211.186 104.44H220.114L219.138 107H205.874L209.25 98.2L208.002 96.664H223.106L222.114 99.24H213.186ZM238.967 96.664L234.999 107H230.663L231.927 103.688H227.287L226.023 107H221.687L225.063 98.2L223.815 96.664H238.967ZM228.999 99.24L228.279 101.128H232.919L233.639 99.24H228.999ZM254.811 96.664L252.107 103.688H243.131L241.867 107H237.531L240.907 98.2L239.659 96.664H254.811ZM244.843 99.24L244.123 101.128H248.763L249.483 99.24H244.843Z" fill="black"/>
</svg>
