<svg width="385" height="151" viewBox="0 0 385 151" fill="none" xmlns="http://www.w3.org/2000/svg">
<path d="M0 3C0 1.34314 1.34315 0 3 0H46.2442C47.901 0 49.2442 1.34315 49.2442 3V8.21026C49.2442 9.62308 50.3895 10.7684 51.8023 10.7684C53.2151 10.7684 54.3605 9.62308 54.3605 8.21026V3C54.3605 1.34314 55.7036 0 57.3605 0H316.767C318.424 0 319.767 1.34315 319.767 3V8.53003C319.767 9.76624 320.77 10.7684 322.006 10.7684C323.242 10.7684 324.244 9.76624 324.244 8.53002V3C324.244 1.34314 325.587 0 327.244 0H382C383.657 0 385 1.34315 385 3V124.966C385 126.623 383.657 127.966 382 127.966H330.938C330.327 127.966 329.731 128.152 329.229 128.5L297.515 150.466C297.013 150.814 296.417 151 295.807 151H89.1787C88.5774 151 87.9899 150.819 87.4925 150.481L55.1238 128.485C54.6264 128.147 54.0389 127.966 53.4376 127.966H3C1.34315 127.966 0 126.623 0 124.966V3Z" fill="#CA9E09"/>
<path d="M139.313 76H123.913V71.38L135.793 62.668V57.52H127.433V60.6H123.913V57.52C123.913 56.6693 124.206 55.9507 124.793 55.364C125.409 54.748 126.142 54.44 126.993 54.44H136.233C137.084 54.44 137.802 54.748 138.389 55.364C139.005 55.9507 139.313 56.6693 139.313 57.52V63.9L127.653 72.48V72.92H139.313V76ZM162.172 72.92C162.172 73.7707 161.864 74.504 161.248 75.12C160.662 75.7067 159.943 76 159.092 76H149.852C149.002 76 148.268 75.7067 147.652 75.12C147.066 74.504 146.772 73.7707 146.772 72.92V57.52C146.772 56.6693 147.066 55.9507 147.652 55.364C148.268 54.748 149.002 54.44 149.852 54.44H159.092C159.943 54.44 160.662 54.748 161.248 55.364C161.864 55.9507 162.172 56.6693 162.172 57.52V72.92ZM158.652 72.92V57.52H150.292V72.92H158.652ZM185.032 72.92C185.032 73.7707 184.724 74.504 184.108 75.12C183.521 75.7067 182.803 76 181.952 76H172.712C171.861 76 171.128 75.7067 170.512 75.12C169.925 74.504 169.632 73.7707 169.632 72.92V57.52C169.632 56.6693 169.925 55.9507 170.512 55.364C171.128 54.748 171.861 54.44 172.712 54.44H181.952C182.803 54.44 183.521 54.748 184.108 55.364C184.724 55.9507 185.032 56.6693 185.032 57.52V72.92ZM181.512 72.92V57.52H173.152V72.92H181.512ZM216.92 76H201.52V60.6L204.6 57.52H201.52V54.44H216.92V57.52H205.04V66.32L207.68 63.68H216.92V66.76H205.04V72.92H216.92V76ZM236.06 57.52H229.68V76H226.16V57.52H219.78V54.44H236.06V57.52ZM258.715 76H255.195V66.76H243.755V76H240.235V54.44H243.755V66.32L246.395 63.68H255.195V54.44H258.715V76Z" fill="#1B170A"/>
<path d="M137.211 98.2L135.963 96.664H142.139L140.651 100.552H145.291L146.779 96.664H151.115L147.147 107H142.811L144.299 103.112H139.659L138.171 107H133.835L137.211 98.2ZM166.975 96.664L163.007 107H158.671L159.935 103.688H155.295L154.031 107H149.695L153.071 98.2L151.823 96.664H166.975ZM157.007 99.24L156.287 101.128H160.927L161.647 99.24H157.007ZM182.818 96.664L180.226 103.416H178.69L179.682 107H175.33L174.274 103.416H171.25L169.874 107H165.538L168.914 98.2L167.666 96.664H182.818ZM172.85 99.24L172.226 100.856H176.866L177.49 99.24H172.85ZM181.382 107L184.758 98.2L183.51 96.664H198.662L195.894 103.88L190.71 107H181.382ZM193.334 99.24H188.694L186.694 104.44H189.03L192.07 102.52L193.334 99.24ZM213.163 99.24L211.163 104.44H220.091L219.115 107H205.851L209.227 98.2L207.979 96.664H223.083L222.091 99.24H213.163ZM238.943 96.664L234.975 107H230.639L231.903 103.688H227.263L225.999 107H221.663L225.039 98.2L223.791 96.664H238.943ZM228.975 99.24L228.255 101.128H232.895L233.615 99.24H228.975ZM254.787 96.664L252.083 103.688H243.107L241.843 107H237.507L240.883 98.2L239.635 96.664H254.787ZM244.819 99.24L244.099 101.128H248.739L249.459 99.24H244.819Z" fill="black"/>
</svg>
