<svg width="386" height="151" viewBox="0 0 386 151" fill="none" xmlns="http://www.w3.org/2000/svg">
<path d="M0.5 3C0.5 1.34314 1.84315 0 3.5 0H46.7442C48.401 0 49.7442 1.34315 49.7442 3V8.21026C49.7442 9.62308 50.8895 10.7684 52.3023 10.7684C53.7151 10.7684 54.8605 9.62308 54.8605 8.21026V3C54.8605 1.34314 56.2036 0 57.8605 0H317.267C318.924 0 320.267 1.34315 320.267 3V8.53003C320.267 9.76624 321.27 10.7684 322.506 10.7684C323.742 10.7684 324.744 9.76624 324.744 8.53002V3C324.744 1.34314 326.087 0 327.744 0H382.5C384.157 0 385.5 1.34315 385.5 3V124.966C385.5 126.623 384.157 127.966 382.5 127.966H331.438C330.827 127.966 330.231 128.152 329.729 128.5L298.015 150.466C297.513 150.814 296.917 151 296.307 151H89.6787C89.0773 151 88.4899 150.819 87.9925 150.481L55.6238 128.485C55.1264 128.147 54.5389 127.966 53.9376 127.966H3.5C1.84315 127.966 0.5 126.623 0.5 124.966V3Z" fill="#CA9E09"/>
<path d="M151.813 72.92C151.813 73.7707 151.505 74.504 150.889 75.12C150.302 75.7067 149.584 76 148.733 76H139.493C138.642 76 137.909 75.7067 137.293 75.12C136.706 74.504 136.413 73.7707 136.413 72.92V69.84H139.933V72.92H148.293V64.12H136.413V54.44H151.813V57.52H139.493V61.04H148.733C149.584 61.04 150.302 61.348 150.889 61.964C151.505 62.5507 151.813 63.2693 151.813 64.12V72.92ZM174.672 72.92C174.672 73.7707 174.364 74.504 173.748 75.12C173.162 75.7067 172.443 76 171.592 76H162.352C161.502 76 160.768 75.7067 160.152 75.12C159.566 74.504 159.272 73.7707 159.272 72.92V57.52C159.272 56.6693 159.566 55.9507 160.152 55.364C160.768 54.748 161.502 54.44 162.352 54.44H171.592C172.443 54.44 173.162 54.748 173.748 55.364C174.364 55.9507 174.672 56.6693 174.672 57.52V72.92ZM171.152 72.92V57.52H162.792V72.92H171.152ZM206.56 76H191.16V60.6L194.24 57.52H191.16V54.44H206.56V57.52H194.68V66.32L197.32 63.68H206.56V66.76H194.68V72.92H206.56V76ZM225.7 57.52H219.32V76H215.8V57.52H209.42V54.44H225.7V57.52ZM248.355 76H244.835V66.76H233.395V76H229.875V54.44H233.395V66.32L236.035 63.68H244.835V54.44H248.355V76Z" fill="#1B170A"/>
<path d="M149.108 107H135.812L136.788 104.44H145.748L146.26 103.112H137.3L139.188 98.2L137.94 96.664H153.076L152.084 99.24H143.124L142.628 100.552H151.588L149.108 107ZM155.032 98.2L153.784 96.664H168.936L164.968 107H151.656L155.032 98.2ZM158.968 99.24L156.968 104.44H161.608L163.608 99.24H158.968ZM174.827 99.24L174.331 100.552H182.619L181.627 103.112H173.339L171.851 107H167.515L170.891 98.2L169.643 96.664H184.107L183.115 99.24H174.827ZM184.383 99.24L185.375 96.664H198.687L197.695 99.24H193.215L190.239 107H185.903L188.879 99.24H184.383ZM213.186 99.24L211.186 104.44H220.114L219.138 107H205.874L209.25 98.2L208.002 96.664H223.106L222.114 99.24H213.186ZM238.967 96.664L234.999 107H230.663L231.927 103.688H227.287L226.023 107H221.687L225.063 98.2L223.815 96.664H238.967ZM228.999 99.24L228.279 101.128H232.919L233.639 99.24H228.999ZM254.811 96.664L252.107 103.688H243.131L241.867 107H237.531L240.907 98.2L239.659 96.664H254.811ZM244.843 99.24L244.123 101.128H248.763L249.483 99.24H244.843Z" fill="black"/>
</svg>
