<svg width="139" height="21" viewBox="0 0 139 21" fill="none" xmlns="http://www.w3.org/2000/svg">
<path d="M8.02 0.679999H13.44V4.08H19.02V7.3H7.82V8.94H19.02V17H13.44V20.4H8.02V17H2.4V13.8H13.6V12.14H2.4V6L0.1 4.08H8.02V0.679999ZM22.2047 17V6L19.9047 4.08H38.8447V8.26L35.9247 10.56H38.8247V17H22.2047ZM27.6247 12.14V13.8H33.4047V12.14H27.6247ZM27.6247 8.94H30.4647L32.5847 7.3H27.6247V8.94ZM58.6689 4.08V8.26L53.0489 12.7V17H47.6289V12.7L42.0289 8.26V6L39.7289 4.08H47.4489V6.56L50.3489 8.94L53.2489 6.56V4.08H58.6689ZM63.2731 7.3L59.5531 4.08H77.6331V7.3H72.3131V17H66.8931V7.3H63.2731ZM86.238 7.3V8.94H97.458V12.14H86.238V13.8H97.458V17H80.818V6L78.518 4.08H97.458V7.3H86.238ZM109.804 11.06H120.184V14.26H109.804V11.06ZM109.804 6.86H120.184V10.06H109.804V6.86Z" fill="#FFDA5D"/>
<path d="M128.8 8.94H138.22V12.14H128.8V8.94Z" fill="white"/>
</svg>
