<svg width="243" height="60" viewBox="0 0 243 60" fill="none" xmlns="http://www.w3.org/2000/svg">
<path d="M14.2244 6.54V18.24H34.3124V24H4.46844V4.2L0.328438 0.743999H34.3124V6.54H14.2244ZM40.0466 4.2L35.9066 0.743999H69.9986V24H40.0466V4.2ZM49.8026 6.54V18.24H60.2426V6.54H49.8026ZM75.7302 4.2L71.5902 0.743999H85.0902L95.9262 11.4V0.743999H105.682V24H96.3222L85.4862 13.38V24H75.7302V4.2ZM111.414 4.2L107.274 0.743999H120.774L131.61 11.4V0.743999H141.366V24H132.006L121.17 13.38V24H111.414V4.2ZM156.853 6.54V9.492H175.501V15.252H156.853V18.24H175.501V24H147.097V4.2L142.957 0.743999H175.501V6.54H156.853ZM190.99 6.54V18.24H209.638V24H181.234V4.2L177.094 0.743999H209.638V6.54H190.99ZM212.491 6.54V0.743999H242.443V6.54H232.363V24H222.607V6.54H212.491ZM18.2321 60V40.2L14.0921 36.744H27.9881V54.24H34.3961V36.744H44.1521V54.24H50.5961V36.744H60.3521V60H18.2321ZM96.0318 36.744V60H86.2758V52.548H75.8358V60H66.0798V40.2L61.9398 36.744H96.0318ZM75.8358 42.54V46.788H86.2758V42.54H75.8358ZM111.484 36.744V54.24H130.132V60H101.728V40.2L97.5882 36.744H111.484ZM144.355 36.744V54.24H163.003V60H134.599V40.2L130.459 36.744H144.355ZM177.226 42.54V45.492H195.874V51.252H177.226V54.24H195.874V60H167.47V40.2L163.33 36.744H195.874V42.54H177.226ZM198.727 42.54V36.744H228.679V42.54H218.599V60H208.843V42.54H198.727Z" fill="#FFC500"/>
</svg>
