<svg width="311" height="28" viewBox="0 0 311 28" fill="none" xmlns="http://www.w3.org/2000/svg">
<path d="M23.42 22.74C23.42 23.3587 23.196 23.8813 22.748 24.308C22.3213 24.756 21.7987 24.98 21.18 24.98H3.26C2.94 24.98 2.62 24.916 2.3 24.788C2.00133 24.6813 1.73467 24.5213 1.5 24.308C1.26533 24.0947 1.07333 23.8493 0.924 23.572C0.774667 23.316 0.7 23.0387 0.7 22.74V2.58C0.7 1.96133 0.913333 1.43867 1.34 1.012C1.788 0.563999 2.32133 0.339998 2.94 0.339998H21.18C21.7987 0.339998 22.3213 0.563999 22.748 1.012C23.196 1.43867 23.42 1.96133 23.42 2.58V22.74ZM21.5 23.06V2.26H2.62V23.06H21.5ZM18.62 18.26C18.62 18.8787 18.396 19.412 17.948 19.86C17.5213 20.2867 16.9987 20.5 16.38 20.5H8.06C7.44133 20.5 6.908 20.2867 6.46 19.86C6.03333 19.412 5.82 18.8787 5.82 18.26V7.06C5.82 6.44133 6.03333 5.91867 6.46 5.492C6.908 5.044 7.44133 4.82 8.06 4.82H16.38C16.9987 4.82 17.5213 5.044 17.948 5.492C18.396 5.91867 18.62 6.44133 18.62 7.06V9.3H16.06V7.06H8.38V18.26H16.06V16.02H18.62V18.26ZM49.1912 18.26C49.1912 18.8787 48.9673 19.412 48.5193 19.86C48.0926 20.2867 47.5699 20.5 46.9513 20.5H37.9913C37.3726 20.5 36.8393 20.2867 36.3913 19.86C35.9646 19.412 35.7513 18.8787 35.7513 18.26V7.06C35.7513 6.44133 35.9646 5.91867 36.3913 5.492C36.8393 5.044 37.3726 4.82 37.9913 4.82H46.9513C47.5699 4.82 48.0926 5.044 48.5193 5.492C48.9673 5.91867 49.1912 6.44133 49.1912 7.06V9.3H46.6313V7.06H38.3113V18.26H46.6313V16.02H49.1912V18.26ZM64.565 18.26C64.565 18.8787 64.341 19.412 63.893 19.86C63.4663 20.2867 62.9437 20.5 62.325 20.5H55.605C54.9863 20.5 54.453 20.2867 54.005 19.86C53.5783 19.412 53.365 18.8787 53.365 18.26V11.54C53.365 10.9213 53.5783 10.3987 54.005 9.972C54.453 9.524 54.9863 9.3 55.605 9.3H62.325C62.9437 9.3 63.4663 9.524 63.893 9.972C64.341 10.3987 64.565 10.9213 64.565 11.54V18.26ZM62.325 18.58V11.22H55.605V18.58H62.325ZM80.2525 18.26C80.2525 18.8787 80.0285 19.412 79.5805 19.86C79.1538 20.2867 78.6312 20.5 78.0125 20.5H71.2925V27.22H69.0525V9.3H71.2925V10.9L72.8925 9.3H78.0125C78.6312 9.3 79.1538 9.524 79.5805 9.972C80.0285 10.3987 80.2525 10.9213 80.2525 11.54V18.26ZM78.0125 18.58V11.22H71.2925V20.18L72.8925 18.58H78.0125ZM95.94 24.98C95.94 25.5987 95.716 26.1213 95.268 26.548C94.8413 26.996 94.3187 27.22 93.7 27.22H84.42L86.34 25.3H93.7V18.9L92.1 20.5H86.98C86.3613 20.5 85.828 20.2867 85.38 19.86C84.9533 19.412 84.74 18.8787 84.74 18.26V9.3H86.98V18.58H93.7V9.3H95.94V24.98ZM109.544 13.78H107.304V11.22H102.824V20.5H100.584V9.3H102.824V10.9L104.424 9.3H107.304C107.922 9.3 108.445 9.524 108.872 9.972C109.32 10.3987 109.544 10.9213 109.544 11.54V13.78ZM115.293 7.38H113.053V4.82H115.293V7.38ZM115.293 20.5H113.053V10.9L115.293 8.66V20.5ZM132.251 9.3L130.331 11.22H122.331V18.58H129.051V12.18H131.291V24.98C131.291 25.5987 131.067 26.1213 130.619 26.548C130.193 26.996 129.67 27.22 129.051 27.22H119.771L121.691 25.3H129.051V18.868L127.131 20.5H122.331C121.713 20.5 121.179 20.2867 120.731 19.86C120.305 19.412 120.091 18.8787 120.091 18.26V11.54C120.091 10.9213 120.305 10.3987 120.731 9.972C121.179 9.524 121.713 9.3 122.331 9.3H132.251ZM147.448 20.5H145.208V11.22H138.488V20.5H136.248V4.18L138.488 1.94V10.9L140.088 9.3H145.208C145.826 9.3 146.349 9.524 146.776 9.972C147.224 10.3987 147.448 10.9213 147.448 11.54V20.5ZM159.288 20.5H154.808C154.189 20.5 153.656 20.2867 153.208 19.86C152.781 19.412 152.568 18.8787 152.568 18.26V11.22H149.367L151.288 9.3H152.568V7.06L154.808 4.82V9.3H159.288V11.22H154.808V18.58H159.288V20.5ZM180.576 20.5H169.376V17.14L178.016 10.804V7.06H171.936V9.3H169.376V7.06C169.376 6.44133 169.59 5.91867 170.016 5.492C170.464 5.044 170.998 4.82 171.616 4.82H178.336C178.955 4.82 179.478 5.044 179.904 5.492C180.352 5.91867 180.576 6.44133 180.576 7.06V11.7L172.096 17.94V18.26H180.576V20.5ZM197.201 18.26C197.201 18.8787 196.977 19.412 196.529 19.86C196.103 20.2867 195.58 20.5 194.961 20.5H188.241C187.623 20.5 187.089 20.2867 186.641 19.86C186.215 19.412 186.001 18.8787 186.001 18.26V7.06C186.001 6.44133 186.215 5.91867 186.641 5.492C187.089 5.044 187.623 4.82 188.241 4.82H194.961C195.58 4.82 196.103 5.044 196.529 5.492C196.977 5.91867 197.201 6.44133 197.201 7.06V18.26ZM194.641 18.26V7.06H188.561V18.26H194.641ZM213.826 20.5H202.626V17.14L211.266 10.804V7.06H205.186V9.3H202.626V7.06C202.626 6.44133 202.84 5.91867 203.266 5.492C203.714 5.044 204.248 4.82 204.866 4.82H211.586C212.205 4.82 212.728 5.044 213.154 5.492C213.602 5.91867 213.826 6.44133 213.826 7.06V11.7L205.346 17.94V18.26H213.826V20.5ZM230.451 18.26C230.451 18.8787 230.227 19.412 229.779 19.86C229.353 20.2867 228.83 20.5 228.211 20.5H221.491C220.873 20.5 220.339 20.2867 219.891 19.86C219.465 19.412 219.251 18.8787 219.251 18.26V16.02H221.811V18.26H227.891V13.78H223.731V11.924L228.211 7.38V7.06H219.251V4.82H230.451V8.052L226.963 11.54V11.86C226.963 11.8387 227.081 11.828 227.315 11.828C227.422 11.828 227.55 11.828 227.699 11.828C227.849 11.828 228.019 11.8387 228.211 11.86C228.83 11.8813 229.353 12.116 229.779 12.564C230.227 12.9907 230.451 13.5027 230.451 14.1V18.26ZM238.916 23.06L236.996 25.3V20.5H235.716V17.94H236.676C237.295 17.94 237.818 18.164 238.244 18.612C238.692 19.0387 238.916 19.5613 238.916 20.18V23.06ZM264.195 18.26C264.195 18.8787 263.971 19.412 263.523 19.86C263.096 20.2867 262.574 20.5 261.955 20.5H250.755V9.3L252.995 7.06H250.755V4.82H259.715C260.334 4.82 260.856 5.044 261.283 5.492C261.731 5.91867 261.955 6.44133 261.955 7.06V11.54H262.019C262.638 11.54 263.15 11.764 263.555 12.212C263.982 12.6387 264.195 13.1613 264.195 13.78V18.26ZM259.395 11.54V7.06H253.315V13.46L255.235 11.54H259.395ZM261.635 18.26V13.78H253.315V18.26H261.635ZM282.118 13.78C282.118 14.3987 281.894 14.932 281.446 15.38C281.019 15.8067 280.496 16.02 279.878 16.02H276.678V20.5H274.118V16.02H270.918C270.299 16.02 269.766 15.8067 269.318 15.38C268.891 14.932 268.678 14.3987 268.678 13.78V4.82H271.238V13.78H279.558V4.82H282.118V13.78ZM296.344 7.06H291.704V20.5H289.144V7.06H284.504V4.82H296.344V7.06ZM310.58 20.5H299.38V9.3L301.62 7.06H299.38V4.82H310.58V7.06H301.94V13.46L303.86 11.54H310.58V13.78H301.94V18.26H310.58V20.5Z" fill="#FFC500"/>
</svg>
