<svg width="1440" height="1034" viewBox="0 0 1440 1034" fill="none" xmlns="http://www.w3.org/2000/svg">
<g clip-path="url(#clip0_2_192)">
<path d="M12.7549 221.593L33.3538 151.563L19.9571 137.959L145.685 126.959L136.913 157.408L121.777 167.983L133.764 166.935L120.503 212.166L12.7549 221.593ZM36.8683 150.613L16.7062 218.292L117.951 209.434L129.685 170.247L111.323 171.853L134.068 155.729L141.606 130.272L26.4618 140.345L36.8683 150.613ZM54.989 196.184L58.1658 185.498L94.2519 182.341L91.0752 193.026L54.989 196.184ZM82.0396 164.65L64.0603 166.223L67.1095 155.549L98.7328 152.782L82.0396 164.65ZM60.4514 188.125L59.079 192.999L88.5345 190.422L90.0344 185.537L60.4514 188.125ZM69.4063 158.303L68.1503 163.038L80.9016 161.923L88.0232 156.674L69.4063 158.303ZM270.811 116.012L262.039 146.461L219.719 176.76L211.583 204.198L172.692 207.6L181.342 178.705L155.188 154.396L159.245 140.549L145.848 126.945L202.464 121.992L197.328 139.659L207.862 149.916L227.171 135.634L231.919 119.415L270.811 116.012ZM209.159 201.455L217.118 174.932L259.449 144.76L266.86 119.313L234.344 122.158L229.772 137.463L207.687 153.786L193.919 140.342L198.385 125.304L152.353 129.331L162.759 139.599L158.609 153.839L184.624 178.032L176.771 204.288L209.159 201.455ZM292.644 138.772L271.247 115.974L390.599 105.532L383.178 130.851L350.662 133.696L333.285 193.55L294.648 196.931L312.026 137.076L292.644 138.772ZM330.86 190.807L348.493 130.931L380.753 128.108L386.52 108.844L277.497 118.383L293.79 135.717L316.232 133.753L298.472 193.641L330.86 190.807ZM509.346 119.813L440.489 125.837L439.233 130.573L507.962 124.56L500.391 149.635L431.534 155.659L430.162 160.533L498.891 154.52L491.713 179.69L383.837 189.128L404.436 119.098L391.04 105.494L516.767 94.4939L509.346 119.813ZM435.143 133.757L438.192 123.083L506.922 117.07L512.689 97.806L397.544 107.88L407.951 118.148L387.789 185.827L489.162 176.958L494.801 157.705L426.072 163.718L429.248 153.032L497.978 147.019L503.872 127.744L435.143 133.757Z" fill="#FFE589" fill-opacity="0.14"/>
<path d="M549.704 174.616L570.303 104.586L556.906 90.9822L682.634 79.9825L673.862 110.431L658.726 121.006L670.713 119.958L657.452 165.189L549.704 174.616ZM573.817 103.636L553.655 171.315L654.9 162.457L666.634 123.27L648.272 124.876L671.017 108.752L678.555 83.2946L563.411 93.3684L573.817 103.636ZM591.938 149.207L595.115 138.521L631.201 135.364L628.024 146.049L591.938 149.207ZM618.989 117.673L601.009 119.246L604.059 108.572L635.682 105.805L618.989 117.673ZM597.4 141.148L596.028 146.022L625.483 143.445L626.983 138.56L597.4 141.148ZM606.355 111.326L605.099 116.061L617.851 114.946L624.972 109.697L606.355 111.326ZM807.76 69.0354L798.988 99.4837L756.668 129.783L748.532 157.221L709.641 160.624L718.291 131.728L692.137 107.419L696.194 93.5724L682.797 79.9682L739.413 75.015L734.277 92.6818L744.811 102.939L764.12 88.6575L768.868 72.4379L807.76 69.0354ZM746.108 154.478L754.067 127.955L796.398 97.783L803.809 72.3363L771.293 75.1811L766.721 90.4858L744.636 106.809L730.868 93.3655L735.334 78.3271L689.302 82.3543L699.708 92.6224L695.558 106.862L721.573 131.055L713.72 157.311L746.108 154.478ZM829.593 91.7951L808.196 68.9972L927.548 58.5552L920.127 83.8744L887.611 86.7192L870.233 146.574L831.597 149.954L848.975 90.0994L829.593 91.7951ZM867.809 143.83L885.442 83.9537L917.702 81.1313L923.469 61.8673L814.446 71.4057L830.739 88.7396L853.181 86.7762L835.421 146.664L867.809 143.83ZM1046.29 72.8361L977.438 78.8604L976.182 83.5958L1044.91 77.5828L1037.34 102.658L968.483 108.682L967.111 113.556L1035.84 107.543L1028.66 132.713L920.786 142.151L941.385 72.1209L927.989 58.5167L1053.72 47.517L1046.29 72.8361ZM972.092 86.7804L975.141 76.106L1043.87 70.093L1049.64 50.8291L934.493 60.9029L944.9 71.171L924.738 138.85L1026.11 129.981L1031.75 110.728L963.021 116.741L966.197 106.056L1034.93 100.042L1040.82 80.7674L972.092 86.7804Z" fill="#FFE589" fill-opacity="0.14"/>
<path d="M1086.65 127.639L1107.25 57.6095L1093.86 44.0053L1219.58 33.0055L1210.81 63.4539L1195.68 74.0293L1207.66 72.9807L1194.4 118.212L1086.65 127.639ZM1110.77 56.6595L1090.6 124.338L1191.85 115.481L1203.58 76.2928L1185.22 77.8992L1207.97 61.7755L1215.5 36.3176L1100.36 46.3914L1110.77 56.6595ZM1128.89 102.23L1132.06 91.5441L1168.15 88.387L1164.97 99.0725L1128.89 102.23ZM1155.94 70.696L1137.96 72.269L1141.01 61.5946L1172.63 58.8279L1155.94 70.696ZM1134.35 94.1709L1132.98 99.045L1162.43 96.468L1163.93 91.5827L1134.35 94.1709ZM1143.3 64.3489L1142.05 69.0844L1154.8 67.9688L1161.92 62.7202L1143.3 64.3489ZM1344.71 22.0584L1335.94 52.5068L1293.62 82.8065L1285.48 110.244L1246.59 113.647L1255.24 84.7507L1229.09 60.4417L1233.14 46.5954L1219.75 32.9912L1276.36 28.038L1271.23 45.7049L1281.76 55.9618L1301.07 41.6806L1305.82 25.461L1344.71 22.0584ZM1283.06 107.501L1291.02 80.9783L1333.35 50.8061L1340.76 25.3594L1308.24 28.2041L1303.67 43.5088L1281.58 59.8318L1267.82 46.3886L1272.28 31.3501L1226.25 35.3774L1236.66 45.6455L1232.51 59.8854L1258.52 84.0781L1250.67 110.334L1283.06 107.501ZM1366.54 44.8182L1345.15 22.0203L1464.5 11.5783L1457.08 36.8975L1424.56 39.7422L1407.18 99.5966L1368.55 102.977L1385.92 43.1225L1366.54 44.8182ZM1404.76 96.8534L1422.39 36.9768L1454.65 34.1543L1460.42 14.8904L1351.39 24.4287L1367.69 41.7627L1390.13 39.7992L1372.37 99.687L1404.76 96.8534ZM1583.24 25.8592L1514.39 31.8834L1513.13 36.6189L1581.86 30.6059L1574.29 55.6812L1505.43 61.7054L1504.06 66.5795L1572.79 60.5665L1565.61 85.7358L1457.74 95.1738L1478.33 25.144L1464.94 11.5398L1590.67 0.540024L1583.24 25.8592ZM1509.04 39.8035L1512.09 29.1291L1580.82 23.1161L1586.59 3.85212L1471.44 13.9259L1481.85 24.194L1461.69 91.8728L1563.06 83.0038L1568.7 63.7511L1499.97 69.7641L1503.15 59.0786L1571.88 53.0655L1577.77 33.7904L1509.04 39.8035Z" fill="#FFE589" fill-opacity="0.14"/>
</g>
<g clip-path="url(#clip1_2_192)">
<path d="M-116.011 364.554L-95.4122 294.525L-108.809 280.921L16.9189 269.921L8.14726 300.369L-6.98863 310.945L4.99758 309.896L-8.26266 355.128L-116.011 364.554ZM-91.8976 293.575L-112.06 361.254L-10.8145 352.396L0.918724 313.208L-17.4431 314.814L5.30214 298.691L12.84 273.233L-102.304 283.307L-91.8976 293.575ZM-73.777 339.145L-70.6002 328.459L-34.514 325.302L-37.6908 335.988L-73.777 339.145ZM-46.7264 307.611L-64.7057 309.184L-61.6564 298.51L-30.0332 295.743L-46.7264 307.611ZM-68.3146 331.086L-69.687 335.96L-40.2315 333.383L-38.7315 328.498L-68.3146 331.086ZM-59.3596 301.264L-60.6157 306L-47.8644 304.884L-40.7427 299.635L-59.3596 301.264ZM142.045 258.974L133.273 289.422L90.9531 319.722L82.8174 347.159L43.926 350.562L52.5765 321.666L26.4223 297.357L30.4789 283.511L17.0823 269.906L73.698 264.953L68.5622 282.62L79.0963 292.877L98.405 278.596L103.153 262.376L142.045 258.974ZM80.3931 344.416L88.3518 317.894L130.683 287.721L138.094 262.275L105.578 265.119L101.006 280.424L78.9209 296.747L65.1528 283.304L69.6191 268.265L23.587 272.293L33.9935 282.561L29.8428 296.801L55.8583 320.993L48.0048 347.25L80.3931 344.416ZM163.878 281.733L142.481 258.935L261.833 248.494L254.412 273.813L221.896 276.657L204.519 336.512L165.882 339.892L183.26 280.038L163.878 281.733ZM202.094 333.769L219.727 273.892L251.988 271.07L257.755 251.806L148.731 261.344L165.024 278.678L187.466 276.714L169.706 336.602L202.094 333.769ZM380.58 262.774L311.723 268.799L310.467 273.534L379.196 267.521L371.625 292.596L302.768 298.621L301.396 303.495L370.125 297.482L362.947 322.651L255.071 332.089L275.67 262.059L262.274 248.455L388.001 237.455L380.58 262.774ZM306.377 276.719L309.426 266.044L378.156 260.031L383.923 240.767L268.778 250.841L279.185 261.109L259.023 328.788L360.396 319.919L366.035 300.666L297.306 306.679L300.482 295.994L369.212 289.981L375.106 270.706L306.377 276.719Z" fill="#FFE589" fill-opacity="0.14"/>
<path d="M420.938 317.578L441.537 247.548L428.14 233.944L553.868 222.944L545.096 253.392L529.96 263.968L541.947 262.919L528.686 308.151L420.938 317.578ZM445.051 246.598L424.889 314.277L526.134 305.419L537.868 266.231L519.506 267.838L542.251 251.714L549.789 226.256L434.645 236.33L445.051 246.598ZM463.172 292.168L466.349 281.482L502.435 278.325L499.258 289.011L463.172 292.168ZM490.223 260.634L472.243 262.207L475.293 251.533L506.916 248.766L490.223 260.634ZM468.634 284.109L467.262 288.983L496.717 286.406L498.217 281.521L468.634 284.109ZM477.589 254.287L476.333 259.023L489.085 257.907L496.206 252.658L477.589 254.287ZM678.994 211.997L670.222 242.445L627.902 272.745L619.766 300.182L580.875 303.585L589.525 274.689L563.371 250.38L567.428 236.534L554.031 222.93L610.647 217.976L605.511 235.643L616.045 245.9L635.354 231.619L640.102 215.399L678.994 211.997ZM617.342 297.439L625.301 270.917L667.632 240.744L675.043 215.298L642.527 218.142L637.955 233.447L615.87 249.77L602.102 236.327L606.568 221.288L560.536 225.316L570.942 235.584L566.792 249.824L592.807 274.016L584.954 300.273L617.342 297.439ZM700.827 234.756L679.43 211.959L798.782 201.517L791.361 226.836L758.845 229.681L741.468 289.535L702.831 292.915L720.209 233.061L700.827 234.756ZM739.043 286.792L756.676 226.915L788.936 224.093L794.703 204.829L685.68 214.367L701.973 231.701L724.415 229.738L706.655 289.625L739.043 286.792ZM917.529 215.797L848.672 221.822L847.416 226.557L916.145 220.544L908.574 245.619L839.717 251.644L838.345 256.518L907.074 250.505L899.896 275.674L792.02 285.112L812.619 215.082L799.223 201.478L924.95 190.478L917.529 215.797ZM843.326 229.742L846.375 219.067L915.105 213.054L920.872 193.79L805.727 203.864L816.134 214.132L795.972 281.811L897.345 272.942L902.984 253.689L834.255 259.702L837.431 249.017L906.161 243.004L912.055 223.729L843.326 229.742Z" fill="#FFE589" fill-opacity="0.14"/>
<path d="M957.887 270.601L978.486 200.571L965.089 186.967L1090.82 175.967L1082.05 206.415L1066.91 216.991L1078.9 215.942L1065.64 261.174L957.887 270.601ZM982 199.621L961.838 267.3L1063.08 258.442L1074.82 219.254L1056.45 220.861L1079.2 204.737L1086.74 179.279L971.594 189.353L982 199.621ZM1000.12 245.191L1003.3 234.505L1039.38 231.348L1036.21 242.034L1000.12 245.191ZM1027.17 213.657L1009.19 215.23L1012.24 204.556L1043.86 201.789L1027.17 213.657ZM1005.58 237.132L1004.21 242.006L1033.67 239.429L1035.17 234.544L1005.58 237.132ZM1014.54 207.31L1013.28 212.046L1026.03 210.93L1033.16 205.681L1014.54 207.31ZM1215.94 165.02L1207.17 195.468L1164.85 225.768L1156.72 253.205L1117.82 256.608L1126.47 227.712L1100.32 203.403L1104.38 189.557L1090.98 175.953L1147.6 170.999L1142.46 188.666L1152.99 198.923L1172.3 184.642L1177.05 168.422L1215.94 165.02ZM1154.29 250.462L1162.25 223.94L1204.58 193.767L1211.99 168.321L1179.48 171.165L1174.9 186.47L1152.82 202.793L1139.05 189.35L1143.52 174.311L1097.48 178.339L1107.89 188.607L1103.74 202.847L1129.76 227.039L1121.9 253.296L1154.29 250.462ZM1237.78 187.78L1216.38 164.982L1335.73 154.54L1328.31 179.859L1295.79 182.704L1278.42 242.558L1239.78 245.938L1257.16 186.084L1237.78 187.78ZM1275.99 239.815L1293.62 179.938L1325.89 177.116L1331.65 157.852L1222.63 167.39L1238.92 184.724L1261.36 182.761L1243.6 242.648L1275.99 239.815ZM1454.48 168.821L1385.62 174.845L1384.36 179.58L1453.09 173.567L1445.52 198.642L1376.67 204.667L1375.29 209.541L1444.02 203.528L1436.85 228.697L1328.97 238.135L1349.57 168.105L1336.17 154.501L1461.9 143.501L1454.48 168.821ZM1380.27 182.765L1383.32 172.09L1452.05 166.077L1457.82 146.813L1342.68 156.887L1353.08 167.155L1332.92 234.834L1434.29 225.965L1439.93 206.712L1371.2 212.725L1374.38 202.04L1443.11 196.027L1449 176.752L1380.27 182.765Z" fill="#FFE589" fill-opacity="0.14"/>
</g>
<g clip-path="url(#clip2_2_192)">
<path d="M12.7549 484.985L33.3538 414.955L19.9571 401.351L145.685 390.351L136.913 420.799L121.777 431.375L133.764 430.326L120.503 475.558L12.7549 484.985ZM36.8683 414.005L16.7062 481.684L117.951 472.826L129.685 433.638L111.323 435.245L134.068 419.121L141.606 393.663L26.4618 403.737L36.8683 414.005ZM54.989 459.575L58.1658 448.89L94.2519 445.732L91.0751 456.418L54.989 459.575ZM82.0396 428.041L64.0603 429.614L67.1095 418.94L98.7327 416.173L82.0396 428.041ZM60.4514 451.516L59.079 456.39L88.5345 453.813L90.0344 448.928L60.4514 451.516ZM69.4063 421.694L68.1503 426.43L80.9016 425.314L88.0232 420.066L69.4063 421.694ZM270.811 379.404L262.039 409.852L219.719 440.152L211.583 467.589L172.692 470.992L181.342 442.096L155.188 417.787L159.245 403.941L145.848 390.337L202.464 385.383L197.328 403.05L207.862 413.307L227.171 399.026L231.919 382.806L270.811 379.404ZM209.159 464.846L217.118 438.324L259.449 408.151L266.86 382.705L234.344 385.55L229.772 400.854L207.687 417.177L193.919 403.734L198.385 388.696L152.353 392.723L162.759 402.991L158.609 417.231L184.624 441.424L176.771 467.68L209.159 464.846ZM292.644 402.164L271.247 379.366L390.599 368.924L383.178 394.243L350.662 397.088L333.285 456.942L294.648 460.322L312.026 400.468L292.644 402.164ZM330.86 454.199L348.493 394.322L380.753 391.5L386.52 372.236L277.497 381.774L293.79 399.108L316.232 397.145L298.472 457.032L330.86 454.199ZM509.346 383.205L440.489 389.229L439.233 393.964L507.962 387.951L500.391 413.027L431.534 419.051L430.162 423.925L498.891 417.912L491.713 443.081L383.837 452.519L404.436 382.489L391.04 368.885L516.767 357.885L509.346 383.205ZM435.143 397.149L438.192 386.475L506.922 380.461L512.689 361.198L397.544 371.271L407.951 381.539L387.789 449.218L489.162 440.349L494.801 421.096L426.072 427.11L429.248 416.424L497.978 410.411L503.872 391.136L435.143 397.149Z" fill="#FFE589" fill-opacity="0.14"/>
<path d="M549.704 438.008L570.303 367.978L556.906 354.374L682.634 343.374L673.862 373.822L658.726 384.398L670.712 383.349L657.452 428.581L549.704 438.008ZM573.817 367.028L553.655 434.707L654.9 425.849L666.634 386.661L648.272 388.268L671.017 372.144L678.555 346.686L563.411 356.76L573.817 367.028ZM591.938 412.598L595.115 401.913L631.201 398.755L628.024 409.441L591.938 412.598ZM618.989 381.064L601.009 382.637L604.058 371.963L635.682 369.196L618.989 381.064ZM597.4 404.539L596.028 409.414L625.483 406.836L626.983 401.951L597.4 404.539ZM606.355 374.717L605.099 379.453L617.85 378.337L624.972 373.089L606.355 374.717ZM807.76 332.427L798.988 362.875L756.668 393.175L748.532 420.612L709.641 424.015L718.291 395.119L692.137 370.81L696.194 356.964L682.797 343.36L739.413 338.406L734.277 356.073L744.811 366.33L764.12 352.049L768.868 335.829L807.76 332.427ZM746.108 417.869L754.067 391.347L796.398 361.175L803.808 335.728L771.293 338.573L766.721 353.877L744.636 370.2L730.868 356.757L735.334 341.719L689.302 345.746L699.708 356.014L695.558 370.254L721.573 394.447L713.72 420.703L746.108 417.869ZM829.593 355.187L808.196 332.389L927.548 321.947L920.127 347.266L887.611 350.111L870.233 409.965L831.597 413.345L848.974 353.491L829.593 355.187ZM867.809 407.222L885.442 347.345L917.702 344.523L923.469 325.259L814.446 334.797L830.739 352.131L853.181 350.168L835.421 410.055L867.809 407.222ZM1046.29 336.228L977.438 342.252L976.182 346.987L1044.91 340.974L1037.34 366.05L968.483 372.074L967.11 376.948L1035.84 370.935L1028.66 396.104L920.786 405.542L941.385 335.512L927.989 321.908L1053.72 310.908L1046.29 336.228ZM972.092 350.172L975.141 339.498L1043.87 333.485L1049.64 314.221L934.493 324.294L944.9 334.562L924.738 402.241L1026.11 393.372L1031.75 374.12L963.02 380.133L966.197 369.447L1034.93 363.434L1040.82 344.159L972.092 350.172Z" fill="#FFE589" fill-opacity="0.14"/>
<path d="M1086.65 391.031L1107.25 321.001L1093.86 307.397L1219.58 296.397L1210.81 326.845L1195.68 337.421L1207.66 336.372L1194.4 381.604L1086.65 391.031ZM1110.77 320.051L1090.6 387.73L1191.85 378.872L1203.58 339.684L1185.22 341.291L1207.97 325.167L1215.5 299.709L1100.36 309.783L1110.77 320.051ZM1128.89 365.621L1132.06 354.936L1168.15 351.779L1164.97 362.464L1128.89 365.621ZM1155.94 334.088L1137.96 335.661L1141.01 324.986L1172.63 322.219L1155.94 334.088ZM1134.35 357.562L1132.98 362.437L1162.43 359.86L1163.93 354.974L1134.35 357.562ZM1143.3 327.74L1142.05 332.476L1154.8 331.36L1161.92 326.112L1143.3 327.74ZM1344.71 285.45L1335.94 315.898L1293.62 346.198L1285.48 373.636L1246.59 377.038L1255.24 348.142L1229.09 323.833L1233.14 309.987L1219.75 296.383L1276.36 291.43L1271.23 309.096L1281.76 319.353L1301.07 305.072L1305.82 288.853L1344.71 285.45ZM1283.06 370.892L1291.02 344.37L1333.35 314.198L1340.76 288.751L1308.24 291.596L1303.67 306.9L1281.58 323.223L1267.82 309.78L1272.28 294.742L1226.25 298.769L1236.66 309.037L1232.51 323.277L1258.52 347.47L1250.67 373.726L1283.06 370.892ZM1366.54 308.21L1345.15 285.412L1464.5 274.97L1457.08 300.289L1424.56 303.134L1407.18 362.988L1368.55 366.368L1385.92 306.514L1366.54 308.21ZM1404.76 360.245L1422.39 300.368L1454.65 297.546L1460.42 278.282L1351.39 287.82L1367.69 305.154L1390.13 303.191L1372.37 363.079L1404.76 360.245ZM1583.24 289.251L1514.39 295.275L1513.13 300.01L1581.86 293.997L1574.29 319.073L1505.43 325.097L1504.06 329.971L1572.79 323.958L1565.61 349.127L1457.74 358.565L1478.33 288.535L1464.94 274.931L1590.67 263.932L1583.24 289.251ZM1509.04 303.195L1512.09 292.521L1580.82 286.508L1586.59 267.244L1471.44 277.317L1481.85 287.586L1461.69 355.264L1563.06 346.395L1568.7 327.143L1499.97 333.156L1503.15 322.47L1571.88 316.457L1577.77 297.182L1509.04 303.195Z" fill="#FFE589" fill-opacity="0.14"/>
</g>
<g clip-path="url(#clip3_2_192)">
<path d="M-116.011 627.946L-95.4122 557.916L-108.809 544.312L16.9189 533.312L8.14726 563.761L-6.98863 574.336L4.99758 573.287L-8.26266 618.519L-116.011 627.946ZM-91.8976 556.966L-112.06 624.645L-10.8145 615.787L0.918724 576.6L-17.4431 578.206L5.30214 562.082L12.84 536.624L-102.304 546.698L-91.8976 556.966ZM-73.777 602.536L-70.6002 591.851L-34.514 588.694L-37.6908 599.379L-73.777 602.536ZM-46.7264 571.003L-64.7057 572.576L-61.6564 561.901L-30.0332 559.135L-46.7264 571.003ZM-68.3146 594.478L-69.687 599.352L-40.2315 596.775L-38.7315 591.889L-68.3146 594.478ZM-59.3596 564.656L-60.6157 569.391L-47.8644 568.276L-40.7427 563.027L-59.3596 564.656ZM142.045 522.365L133.273 552.814L90.9531 583.113L82.8174 610.551L43.926 613.953L52.5765 585.057L26.4223 560.748L30.4789 546.902L17.0823 533.298L73.698 528.345L68.5622 546.012L79.0963 556.269L98.405 541.987L103.153 525.768L142.045 522.365ZM80.3931 607.808L88.3518 581.285L130.683 551.113L138.094 525.666L105.578 528.511L101.006 543.816L78.9209 560.139L65.1528 546.695L69.6191 531.657L23.587 535.684L33.9935 545.952L29.8428 560.192L55.8583 584.385L48.0048 610.641L80.3931 607.808ZM163.878 545.125L142.481 522.327L261.833 511.885L254.412 537.204L221.896 540.049L204.519 599.903L165.882 603.284L183.26 543.429L163.878 545.125ZM202.094 597.16L219.727 537.284L251.988 534.461L257.755 515.197L148.731 524.735L165.024 542.069L187.466 540.106L169.706 599.994L202.094 597.16ZM380.58 526.166L311.723 532.19L310.467 536.926L379.196 530.913L371.625 555.988L302.768 562.012L301.396 566.886L370.125 560.873L362.947 586.043L255.071 595.481L275.67 525.451L262.274 511.847L388.001 500.847L380.58 526.166ZM306.377 540.11L309.426 529.436L378.156 523.423L383.923 504.159L268.778 514.233L279.185 524.501L259.023 592.18L360.396 583.311L366.035 564.058L297.306 570.071L300.482 559.385L369.212 553.372L375.106 534.097L306.377 540.11Z" fill="#FFE589" fill-opacity="0.14"/>
<path d="M420.938 580.969L441.537 510.939L428.14 497.335L553.868 486.335L545.096 516.784L529.96 527.359L541.947 526.31L528.686 571.542L420.938 580.969ZM445.051 509.989L424.889 577.668L526.134 568.81L537.868 529.623L519.506 531.229L542.251 515.105L549.789 489.647L434.645 499.721L445.051 509.989ZM463.172 555.559L466.349 544.874L502.435 541.717L499.258 552.402L463.172 555.559ZM490.223 524.026L472.243 525.599L475.293 514.924L506.916 512.158L490.223 524.026ZM468.634 547.501L467.262 552.375L496.717 549.798L498.217 544.913L468.634 547.501ZM477.589 517.679L476.333 522.414L489.085 521.299L496.206 516.05L477.589 517.679ZM678.994 475.388L670.222 505.837L627.902 536.136L619.766 563.574L580.875 566.976L589.525 538.08L563.371 513.771L567.428 499.925L554.031 486.321L610.647 481.368L605.511 499.035L616.045 509.292L635.354 495.01L640.102 478.791L678.994 475.388ZM617.342 560.831L625.301 534.308L667.632 504.136L675.043 478.689L642.527 481.534L637.955 496.839L615.87 513.162L602.102 499.718L606.568 484.68L560.536 488.707L570.942 498.975L566.792 513.215L592.807 537.408L584.954 563.664L617.342 560.831ZM700.827 498.148L679.43 475.35L798.782 464.908L791.361 490.227L758.845 493.072L741.468 552.926L702.831 556.307L720.209 496.452L700.827 498.148ZM739.043 550.183L756.676 490.307L788.936 487.484L794.703 468.22L685.68 477.759L701.973 495.092L724.415 493.129L706.655 553.017L739.043 550.183ZM917.529 479.189L848.672 485.213L847.416 489.949L916.145 483.936L908.574 509.011L839.717 515.035L838.345 519.909L907.074 513.896L899.896 539.066L792.02 548.504L812.619 478.474L799.223 464.87L924.95 453.87L917.529 479.189ZM843.326 493.133L846.375 482.459L915.105 476.446L920.872 457.182L805.727 467.256L816.134 477.524L795.972 545.203L897.345 536.334L902.984 517.081L834.255 523.094L837.431 512.408L906.161 506.395L912.055 487.12L843.326 493.133Z" fill="#FFE589" fill-opacity="0.14"/>
<path d="M957.887 533.992L978.486 463.962L965.089 450.358L1090.82 439.358L1082.05 469.807L1066.91 480.382L1078.9 479.334L1065.64 524.565L957.887 533.992ZM982 463.012L961.838 530.691L1063.08 521.833L1074.82 482.646L1056.45 484.252L1079.2 468.128L1086.74 442.671L971.594 452.744L982 463.012ZM1000.12 508.583L1003.3 497.897L1039.38 494.74L1036.21 505.425L1000.12 508.583ZM1027.17 477.049L1009.19 478.622L1012.24 467.947L1043.86 465.181L1027.17 477.049ZM1005.58 500.524L1004.21 505.398L1033.67 502.821L1035.17 497.936L1005.58 500.524ZM1014.54 470.702L1013.28 475.437L1026.03 474.322L1033.16 469.073L1014.54 470.702ZM1215.94 428.411L1207.17 458.86L1164.85 489.159L1156.72 516.597L1117.82 519.999L1126.47 491.104L1100.32 466.795L1104.38 452.948L1090.98 439.344L1147.6 434.391L1142.46 452.058L1152.99 462.315L1172.3 448.033L1177.05 431.814L1215.94 428.411ZM1154.29 513.854L1162.25 487.331L1204.58 457.159L1211.99 431.712L1179.48 434.557L1174.9 449.862L1152.82 466.185L1139.05 452.741L1143.52 437.703L1097.48 441.73L1107.89 451.998L1103.74 466.238L1129.76 490.431L1121.9 516.687L1154.29 513.854ZM1237.78 451.171L1216.38 428.373L1335.73 417.931L1328.31 443.25L1295.79 446.095L1278.42 505.949L1239.78 509.33L1257.16 449.475L1237.78 451.171ZM1275.99 503.206L1293.62 443.33L1325.89 440.507L1331.65 421.243L1222.63 430.782L1238.92 448.116L1261.36 446.152L1243.6 506.04L1275.99 503.206ZM1454.48 432.212L1385.62 438.236L1384.36 442.972L1453.09 436.959L1445.52 462.034L1376.67 468.058L1375.29 472.932L1444.02 466.919L1436.85 492.089L1328.97 501.527L1349.57 431.497L1336.17 417.893L1461.9 406.893L1454.48 432.212ZM1380.27 446.156L1383.32 435.482L1452.05 429.469L1457.82 410.205L1342.68 420.279L1353.08 430.547L1332.92 498.226L1434.29 489.357L1439.93 470.104L1371.2 476.117L1374.38 465.431L1443.11 459.418L1449 440.143L1380.27 446.156Z" fill="#FFE589" fill-opacity="0.14"/>
</g>
<g clip-path="url(#clip4_2_192)">
<path d="M12.7549 748.376L33.3538 678.346L19.9571 664.742L145.685 653.743L136.913 684.191L121.777 694.766L133.764 693.718L120.503 738.95L12.7549 748.376ZM36.8683 677.397L16.7062 745.075L117.951 736.218L129.685 697.03L111.323 698.636L134.068 682.512L141.606 657.055L26.4618 667.128L36.8683 677.397ZM54.989 722.967L58.1658 712.281L94.2519 709.124L91.0751 719.809L54.989 722.967ZM82.0396 691.433L64.0603 693.006L67.1095 682.332L98.7327 679.565L82.0396 691.433ZM60.4514 714.908L59.079 719.782L88.5345 717.205L90.0344 712.32L60.4514 714.908ZM69.4063 685.086L68.1503 689.821L80.9016 688.706L88.0232 683.457L69.4063 685.086ZM270.811 642.795L262.039 673.244L219.719 703.544L211.583 730.981L172.692 734.384L181.342 705.488L155.188 681.179L159.245 667.332L145.848 653.728L202.464 648.775L197.328 666.442L207.862 676.699L227.171 662.418L231.919 646.198L270.811 642.795ZM209.159 728.238L217.118 701.715L259.449 671.543L266.86 646.096L234.344 648.941L229.772 664.246L207.687 680.569L193.919 667.126L198.385 652.087L152.353 656.114L162.759 666.382L158.609 680.622L184.624 704.815L176.771 731.071L209.159 728.238ZM292.644 665.555L271.247 642.757L390.599 632.315L383.178 657.634L350.662 660.479L333.285 720.334L294.648 723.714L312.026 663.859L292.644 665.555ZM330.86 717.59L348.493 657.714L380.753 654.891L386.52 635.627L277.497 645.166L293.79 662.5L316.232 660.536L298.472 720.424L330.86 717.59ZM509.346 646.596L440.489 652.62L439.233 657.356L507.962 651.343L500.391 676.418L431.534 682.442L430.162 687.317L498.891 681.303L491.713 706.473L383.837 715.911L404.436 645.881L391.04 632.277L516.767 621.277L509.346 646.596ZM435.143 660.54L438.192 649.866L506.922 643.853L512.689 624.589L397.544 634.663L407.951 644.931L387.789 712.61L489.162 703.741L494.801 684.488L426.072 690.501L429.248 679.816L497.978 673.803L503.872 654.527L435.143 660.54Z" fill="#FFE589" fill-opacity="0.14"/>
<path d="M549.704 701.399L570.303 631.37L556.906 617.765L682.634 606.766L673.862 637.214L658.726 647.789L670.712 646.741L657.452 691.973L549.704 701.399ZM573.817 630.42L553.655 698.098L654.9 689.241L666.634 650.053L648.272 651.659L671.017 635.536L678.555 610.078L563.411 620.152L573.817 630.42ZM591.938 675.99L595.115 665.304L631.201 662.147L628.024 672.833L591.938 675.99ZM618.989 644.456L601.009 646.029L604.058 635.355L635.682 632.588L618.989 644.456ZM597.4 667.931L596.028 672.805L625.483 670.228L626.983 665.343L597.4 667.931ZM606.355 638.109L605.099 642.844L617.85 641.729L624.972 636.48L606.355 638.109ZM807.76 595.819L798.988 626.267L756.668 656.567L748.532 684.004L709.641 687.407L718.291 658.511L692.137 634.202L696.194 620.355L682.797 606.751L739.413 601.798L734.277 619.465L744.811 629.722L764.12 615.441L768.868 599.221L807.76 595.819ZM746.108 681.261L754.067 654.738L796.398 624.566L803.808 599.119L771.293 601.964L766.721 617.269L744.636 633.592L730.868 620.149L735.334 605.11L689.302 609.137L699.708 619.406L695.558 633.646L721.573 657.838L713.72 684.095L746.108 681.261ZM829.593 618.578L808.196 595.78L927.548 585.338L920.127 610.658L887.611 613.502L870.233 673.357L831.597 676.737L848.974 616.883L829.593 618.578ZM867.809 670.613L885.442 610.737L917.702 607.914L923.469 588.65L814.446 598.189L830.739 615.523L853.181 613.559L835.421 673.447L867.809 670.613ZM1046.29 599.619L977.438 605.643L976.182 610.379L1044.91 604.366L1037.34 629.441L968.483 635.465L967.11 640.34L1035.84 634.327L1028.66 659.496L920.786 668.934L941.385 598.904L927.989 585.3L1053.72 574.3L1046.29 599.619ZM972.092 613.564L975.141 602.889L1043.87 596.876L1049.64 577.612L934.493 587.686L944.9 597.954L924.738 665.633L1026.11 656.764L1031.75 637.511L963.02 643.524L966.197 632.839L1034.93 626.826L1040.82 607.551L972.092 613.564Z" fill="#FFE589" fill-opacity="0.14"/>
<path d="M1086.65 654.422L1107.25 584.393L1093.86 570.788L1219.58 559.789L1210.81 590.237L1195.68 600.812L1207.66 599.764L1194.4 644.996L1086.65 654.422ZM1110.77 583.443L1090.6 651.121L1191.85 642.264L1203.58 603.076L1185.22 604.682L1207.97 588.559L1215.5 563.101L1100.36 573.175L1110.77 583.443ZM1128.89 629.013L1132.06 618.327L1168.15 615.17L1164.97 625.856L1128.89 629.013ZM1155.94 597.479L1137.96 599.052L1141.01 588.378L1172.63 585.611L1155.94 597.479ZM1134.35 620.954L1132.98 625.828L1162.43 623.251L1163.93 618.366L1134.35 620.954ZM1143.3 591.132L1142.05 595.868L1154.8 594.752L1161.92 589.503L1143.3 591.132ZM1344.71 548.842L1335.94 579.29L1293.62 609.59L1285.48 637.027L1246.59 640.43L1255.24 611.534L1229.09 587.225L1233.14 573.379L1219.75 559.774L1276.36 554.821L1271.23 572.488L1281.76 582.745L1301.07 568.464L1305.82 552.244L1344.71 548.842ZM1283.06 634.284L1291.02 607.761L1333.35 577.589L1340.76 552.142L1308.24 554.987L1303.67 570.292L1281.58 586.615L1267.82 573.172L1272.28 558.133L1226.25 562.16L1236.66 572.429L1232.51 586.669L1258.52 610.861L1250.67 637.118L1283.06 634.284ZM1366.54 571.601L1345.15 548.803L1464.5 538.361L1457.08 563.681L1424.56 566.525L1407.18 626.38L1368.55 629.76L1385.92 569.906L1366.54 571.601ZM1404.76 623.636L1422.39 563.76L1454.65 560.937L1460.42 541.673L1351.39 551.212L1367.69 568.546L1390.13 566.582L1372.37 626.47L1404.76 623.636ZM1583.24 552.642L1514.39 558.666L1513.13 563.402L1581.86 557.389L1574.29 582.464L1505.43 588.488L1504.06 593.363L1572.79 587.35L1565.61 612.519L1457.74 621.957L1478.33 551.927L1464.94 538.323L1590.67 527.323L1583.24 552.642ZM1509.04 566.587L1512.09 555.912L1580.82 549.899L1586.59 530.635L1471.44 540.709L1481.85 550.977L1461.69 618.656L1563.06 609.787L1568.7 590.534L1499.97 596.547L1503.15 585.862L1571.88 579.849L1577.77 560.574L1509.04 566.587Z" fill="#FFE589" fill-opacity="0.14"/>
</g>
<g clip-path="url(#clip5_2_192)">
<path d="M-116.011 891.338L-95.4122 821.308L-108.809 807.704L16.9189 796.704L8.14726 827.152L-6.98863 837.728L4.99758 836.679L-8.26266 881.911L-116.011 891.338ZM-91.8976 820.358L-112.06 888.037L-10.8145 879.179L0.918724 839.991L-17.4431 841.598L5.30214 825.474L12.84 800.016L-102.304 810.09L-91.8976 820.358ZM-73.777 865.928L-70.6002 855.242L-34.514 852.085L-37.6908 862.771L-73.777 865.928ZM-46.7264 834.394L-64.7057 835.967L-61.6564 825.293L-30.0332 822.526L-46.7264 834.394ZM-68.3146 857.869L-69.687 862.743L-40.2315 860.166L-38.7315 855.281L-68.3146 857.869ZM-59.3596 828.047L-60.6157 832.783L-47.8644 831.667L-40.7427 826.419L-59.3596 828.047ZM142.045 785.757L133.273 816.205L90.9531 846.505L82.8174 873.942L43.926 877.345L52.5765 848.449L26.4223 824.14L30.4789 810.294L17.0823 796.69L73.698 791.736L68.5622 809.403L79.0963 819.66L98.405 805.379L103.153 789.159L142.045 785.757ZM80.3931 871.199L88.3518 844.677L130.683 814.504L138.094 789.058L105.578 791.903L101.006 807.207L78.9209 823.53L65.1528 810.087L69.6191 795.048L23.587 799.076L33.9935 809.344L29.8428 823.584L55.8583 847.776L48.0048 874.033L80.3931 871.199ZM163.878 808.517L142.481 785.719L261.833 775.277L254.412 800.596L221.896 803.441L204.519 863.295L165.882 866.675L183.26 806.821L163.878 808.517ZM202.094 860.552L219.727 800.675L251.988 797.853L257.755 778.589L148.731 788.127L165.024 805.461L187.466 803.498L169.706 863.385L202.094 860.552ZM380.58 789.558L311.723 795.582L310.467 800.317L379.196 794.304L371.625 819.38L302.768 825.404L301.396 830.278L370.125 824.265L362.947 849.434L255.071 858.872L275.67 788.842L262.274 775.238L388.001 764.238L380.58 789.558ZM306.377 803.502L309.426 792.827L378.156 786.814L383.923 767.55L268.778 777.624L279.185 787.892L259.023 855.571L360.396 846.702L366.035 827.449L297.306 833.462L300.482 822.777L369.212 816.764L375.106 797.489L306.377 803.502Z" fill="#FFE589" fill-opacity="0.14"/>
<path d="M420.938 844.361L441.537 774.331L428.14 760.727L553.868 749.727L545.096 780.175L529.96 790.751L541.947 789.702L528.686 834.934L420.938 844.361ZM445.051 773.381L424.889 841.06L526.134 832.202L537.868 793.014L519.506 794.621L542.251 778.497L549.789 753.039L434.645 763.113L445.051 773.381ZM463.172 818.951L466.349 808.266L502.435 805.108L499.258 815.794L463.172 818.951ZM490.223 787.417L472.243 788.99L475.293 778.316L506.916 775.549L490.223 787.417ZM468.634 810.892L467.262 815.766L496.717 813.189L498.217 808.304L468.634 810.892ZM477.589 781.07L476.333 785.806L489.085 784.69L496.206 779.442L477.589 781.07ZM678.994 738.78L670.222 769.228L627.902 799.528L619.766 826.965L580.875 830.368L589.525 801.472L563.371 777.163L567.428 763.317L554.031 749.713L610.647 744.759L605.511 762.426L616.045 772.683L635.354 758.402L640.102 742.182L678.994 738.78ZM617.342 824.222L625.301 797.7L667.632 767.528L675.043 742.081L642.527 744.926L637.955 760.23L615.87 776.553L602.102 763.11L606.568 748.072L560.536 752.099L570.942 762.367L566.792 776.607L592.807 800.8L584.954 827.056L617.342 824.222ZM700.827 761.54L679.43 738.742L798.782 728.3L791.361 753.619L758.845 756.464L741.468 816.318L702.831 819.698L720.209 759.844L700.827 761.54ZM739.043 813.575L756.676 753.698L788.936 750.876L794.703 731.612L685.68 741.15L701.973 758.484L724.415 756.521L706.655 816.408L739.043 813.575ZM917.529 742.581L848.672 748.605L847.416 753.34L916.145 747.327L908.574 772.403L839.717 778.427L838.345 783.301L907.074 777.288L899.896 802.457L792.02 811.895L812.619 741.865L799.223 728.261L924.95 717.261L917.529 742.581ZM843.326 756.525L846.375 745.851L915.105 739.837L920.872 720.574L805.727 730.647L816.134 740.915L795.972 808.594L897.345 799.725L902.984 780.473L834.255 786.486L837.431 775.8L906.161 769.787L912.055 750.512L843.326 756.525Z" fill="#FFE589" fill-opacity="0.14"/>
<path d="M957.887 797.384L978.486 727.354L965.089 713.75L1090.82 702.75L1082.05 733.198L1066.91 743.774L1078.9 742.725L1065.64 787.957L957.887 797.384ZM982 726.404L961.838 794.083L1063.08 785.225L1074.82 746.037L1056.45 747.644L1079.2 731.52L1086.74 706.062L971.594 716.136L982 726.404ZM1000.12 771.974L1003.3 761.289L1039.38 758.131L1036.21 768.817L1000.12 771.974ZM1027.17 740.44L1009.19 742.013L1012.24 731.339L1043.86 728.572L1027.17 740.44ZM1005.58 763.915L1004.21 768.789L1033.67 766.212L1035.17 761.327L1005.58 763.915ZM1014.54 734.093L1013.28 738.829L1026.03 737.713L1033.16 732.465L1014.54 734.093ZM1215.94 691.803L1207.17 722.251L1164.85 752.551L1156.72 779.988L1117.82 783.391L1126.47 754.495L1100.32 730.186L1104.38 716.34L1090.98 702.736L1147.6 697.782L1142.46 715.449L1152.99 725.706L1172.3 711.425L1177.05 695.205L1215.94 691.803ZM1154.29 777.245L1162.25 750.723L1204.58 720.551L1211.99 695.104L1179.48 697.949L1174.9 713.253L1152.82 729.576L1139.05 716.133L1143.52 701.095L1097.48 705.122L1107.89 715.39L1103.74 729.63L1129.76 753.823L1121.9 780.079L1154.29 777.245ZM1237.78 714.563L1216.38 691.765L1335.73 681.323L1328.31 706.642L1295.79 709.487L1278.42 769.341L1239.78 772.721L1257.16 712.867L1237.78 714.563ZM1275.99 766.598L1293.62 706.721L1325.89 703.899L1331.65 684.635L1222.63 694.173L1238.92 711.507L1261.36 709.544L1243.6 769.431L1275.99 766.598ZM1454.48 695.604L1385.62 701.628L1384.36 706.363L1453.09 700.35L1445.52 725.426L1376.67 731.45L1375.29 736.324L1444.02 730.311L1436.85 755.48L1328.97 764.918L1349.57 694.888L1336.17 681.284L1461.9 670.284L1454.48 695.604ZM1380.27 709.548L1383.32 698.874L1452.05 692.861L1457.82 673.597L1342.68 683.67L1353.08 693.938L1332.92 761.617L1434.29 752.748L1439.93 733.496L1371.2 739.509L1374.38 728.823L1443.11 722.81L1449 703.535L1380.27 709.548Z" fill="#FFE589" fill-opacity="0.14"/>
</g>
<g clip-path="url(#clip6_2_192)">
<path d="M12.7549 1011.77L33.3538 941.738L19.9571 928.134L145.685 917.134L136.913 947.582L121.777 958.158L133.764 957.109L120.503 1002.34L12.7549 1011.77ZM36.8683 940.788L16.7062 1008.47L117.951 999.609L129.685 960.421L111.323 962.028L134.068 945.904L141.606 920.446L26.4618 930.52L36.8683 940.788ZM54.989 986.358L58.1658 975.673L94.2519 972.516L91.0751 983.201L54.989 986.358ZM82.0396 954.825L64.0603 956.398L67.1095 945.723L98.7327 942.956L82.0396 954.825ZM60.4514 978.299L59.079 983.174L88.5345 980.597L90.0344 975.711L60.4514 978.299ZM69.4063 948.477L68.1503 953.213L80.9016 952.097L88.0232 946.849L69.4063 948.477ZM270.811 906.187L262.039 936.635L219.719 966.935L211.583 994.373L172.692 997.775L181.342 968.879L155.188 944.57L159.245 930.724L145.848 917.12L202.464 912.167L197.328 929.833L207.862 940.09L227.171 925.809L231.919 909.59L270.811 906.187ZM209.159 991.629L217.118 965.107L259.449 934.935L266.86 909.488L234.344 912.333L229.772 927.637L207.687 943.96L193.919 930.517L198.385 915.479L152.353 919.506L162.759 929.774L158.609 944.014L184.624 968.207L176.771 994.463L209.159 991.629ZM292.644 928.947L271.247 906.149L390.599 895.707L383.178 921.026L350.662 923.871L333.285 983.725L294.648 987.105L312.026 927.251L292.644 928.947ZM330.86 980.982L348.493 921.105L380.753 918.283L386.52 899.019L277.497 908.557L293.79 925.891L316.232 923.928L298.472 983.816L330.86 980.982ZM509.346 909.988L440.489 916.012L439.233 920.747L507.962 914.734L500.391 939.81L431.534 945.834L430.162 950.708L498.891 944.695L491.713 969.864L383.837 979.302L404.436 909.272L391.04 895.668L516.767 884.669L509.346 909.988ZM435.143 923.932L438.192 913.258L506.922 907.245L512.689 887.981L397.544 898.054L407.951 908.323L387.789 976.001L489.162 967.132L494.801 947.88L426.072 953.893L429.248 943.207L497.978 937.194L503.872 917.919L435.143 923.932Z" fill="#FFE589" fill-opacity="0.14"/>
<path d="M549.704 964.791L570.303 894.761L556.906 881.157L682.634 870.157L673.862 900.606L658.726 911.181L670.712 910.132L657.452 955.364L549.704 964.791ZM573.817 893.811L553.655 961.49L654.9 952.632L666.634 913.444L648.272 915.051L671.017 898.927L678.555 873.469L563.411 883.543L573.817 893.811ZM591.938 939.381L595.115 928.696L631.201 925.539L628.024 936.224L591.938 939.381ZM618.989 907.848L601.009 909.421L604.058 898.746L635.682 895.98L618.989 907.848ZM597.4 931.322L596.028 936.197L625.483 933.62L626.983 928.734L597.4 931.322ZM606.355 901.501L605.099 906.236L617.85 905.12L624.972 899.872L606.355 901.501ZM807.76 859.21L798.988 889.658L756.668 919.958L748.532 947.396L709.641 950.798L718.291 921.902L692.137 897.593L696.194 883.747L682.797 870.143L739.413 865.19L734.277 882.856L744.811 893.113L764.12 878.832L768.868 862.613L807.76 859.21ZM746.108 944.652L754.067 918.13L796.398 887.958L803.808 862.511L771.293 865.356L766.721 880.66L744.636 896.983L730.868 883.54L735.334 868.502L689.302 872.529L699.708 882.797L695.558 897.037L721.573 921.23L713.72 947.486L746.108 944.652ZM829.593 881.97L808.196 859.172L927.548 848.73L920.127 874.049L887.611 876.894L870.233 936.748L831.597 940.128L848.974 880.274L829.593 881.97ZM867.809 934.005L885.442 874.128L917.702 871.306L923.469 852.042L814.446 861.58L830.739 878.914L853.181 876.951L835.421 936.839L867.809 934.005ZM1046.29 863.011L977.438 869.035L976.182 873.771L1044.91 867.757L1037.34 892.833L968.483 898.857L967.11 903.731L1035.84 897.718L1028.66 922.887L920.786 932.325L941.385 862.296L927.989 848.691L1053.72 837.692L1046.29 863.011ZM972.092 876.955L975.141 866.281L1043.87 860.268L1049.64 841.004L934.493 851.078L944.9 861.346L924.738 929.024L1026.11 920.155L1031.75 900.903L963.02 906.916L966.197 896.23L1034.93 890.217L1040.82 870.942L972.092 876.955Z" fill="#FFE589" fill-opacity="0.14"/>
<path d="M1086.65 917.814L1107.25 847.784L1093.86 834.18L1219.58 823.18L1210.81 853.629L1195.68 864.204L1207.66 863.155L1194.4 908.387L1086.65 917.814ZM1110.77 846.834L1090.6 914.513L1191.85 905.655L1203.58 866.467L1185.22 868.074L1207.97 851.95L1215.5 826.492L1100.36 836.566L1110.77 846.834ZM1128.89 892.404L1132.06 881.719L1168.15 878.562L1164.97 889.247L1128.89 892.404ZM1155.94 860.871L1137.96 862.444L1141.01 851.769L1172.63 849.003L1155.94 860.871ZM1134.35 884.346L1132.98 889.22L1162.43 886.643L1163.93 881.757L1134.35 884.346ZM1143.3 854.524L1142.05 859.259L1154.8 858.143L1161.92 852.895L1143.3 854.524ZM1344.71 812.233L1335.94 842.681L1293.62 872.981L1285.48 900.419L1246.59 903.821L1255.24 874.925L1229.09 850.616L1233.14 836.77L1219.75 823.166L1276.36 818.213L1271.23 835.879L1281.76 846.136L1301.07 831.855L1305.82 815.636L1344.71 812.233ZM1283.06 897.676L1291.02 871.153L1333.35 840.981L1340.76 815.534L1308.24 818.379L1303.67 833.683L1281.58 850.006L1267.82 836.563L1272.28 821.525L1226.25 825.552L1236.66 835.82L1232.51 850.06L1258.52 874.253L1250.67 900.509L1283.06 897.676ZM1366.54 834.993L1345.15 812.195L1464.5 801.753L1457.08 827.072L1424.56 829.917L1407.18 889.771L1368.55 893.151L1385.92 833.297L1366.54 834.993ZM1404.76 887.028L1422.39 827.151L1454.65 824.329L1460.42 805.065L1351.39 814.603L1367.69 831.937L1390.13 829.974L1372.37 889.862L1404.76 887.028ZM1583.24 816.034L1514.39 822.058L1513.13 826.794L1581.86 820.78L1574.29 845.856L1505.43 851.88L1504.06 856.754L1572.79 850.741L1565.61 875.91L1457.74 885.348L1478.33 815.319L1464.94 801.714L1590.67 790.715L1583.24 816.034ZM1509.04 829.978L1512.09 819.304L1580.82 813.291L1586.59 794.027L1471.44 804.101L1481.85 814.369L1461.69 882.047L1563.06 873.178L1568.7 853.926L1499.97 859.939L1503.15 849.253L1571.88 843.24L1577.77 823.965L1509.04 829.978Z" fill="#FFE589" fill-opacity="0.14"/>
</g>
<defs>
<clipPath id="clip0_2_192">
<rect width="1447.74" height="127" fill="white" transform="translate(-10 117.179) rotate(-5)"/>
</clipPath>
<clipPath id="clip1_2_192">
<rect width="1447.74" height="127" fill="white" transform="translate(-10 248.875) rotate(-5)"/>
</clipPath>
<clipPath id="clip2_2_192">
<rect width="1447.74" height="127" fill="white" transform="translate(-10 380.571) rotate(-5)"/>
</clipPath>
<clipPath id="clip3_2_192">
<rect width="1447.74" height="127" fill="white" transform="translate(-10 512.266) rotate(-5)"/>
</clipPath>
<clipPath id="clip4_2_192">
<rect width="1447.74" height="127" fill="white" transform="translate(-10 643.962) rotate(-5)"/>
</clipPath>
<clipPath id="clip5_2_192">
<rect width="1447.74" height="127" fill="white" transform="translate(-10 775.658) rotate(-5)"/>
</clipPath>
<clipPath id="clip6_2_192">
<rect width="1447.74" height="127" fill="white" transform="translate(-10 907.354) rotate(-5)"/>
</clipPath>
</defs>
</svg>
