<svg width="262" height="37" viewBox="0 0 262 37" fill="none" xmlns="http://www.w3.org/2000/svg">
<path d="M14.8208 0.623998H24.5768V6.744H34.6208V12.54H14.4608V15.492H34.6208V30H24.5768V36.12H14.8208V30H4.70477V24.24H24.8648V21.252H4.70477V10.2L0.564766 6.744H14.8208V0.623998ZM70.3412 6.744V30H40.3172V24.24H60.5492V21.252H40.3172V15.492H60.5492V12.54H42.9452L36.2132 6.744H70.3412ZM105.99 6.744V21.252H85.7216V24.24H105.882V30H75.9656V15.492H96.1976V12.54H76.0016V10.2L71.8616 6.744H105.99ZM141.566 30H111.65V24.24H131.81V21.252H111.65V10.2L107.51 6.744H136.31V12.54H121.406V15.492H141.566V30ZM144.419 30V24.24H154.247V30L150.755 34.14H149.063V30H144.419ZM169.711 12.54V15.492H189.907V30H159.955V10.2L155.815 6.744H189.907V12.54H169.711ZM169.711 21.252V24.24H180.151V21.252H169.711ZM225.591 6.744V21.252H205.323V24.24H225.483V30H195.567V15.492H215.799V12.54H195.603V10.2L191.463 6.744H225.591ZM231.252 10.2L227.112 6.744H261.204V30H231.252V10.2ZM241.008 12.54V24.24H251.448V12.54H241.008Z" fill="#FFC500"/>
</svg>
