<svg width="570" height="654" viewBox="0 0 570 654" fill="none" xmlns="http://www.w3.org/2000/svg">
<path d="M0.875 25C0.875 11.1929 12.0679 0 25.875 0H544.875C558.682 0 569.875 11.1929 569.875 25V250.073C569.875 253.954 568.972 257.781 567.236 261.252L547.375 300.981L565.677 328.438C568.414 332.544 569.875 337.369 569.875 342.304V629C569.875 642.807 558.682 654 544.875 654H25.875C12.0679 654 0.875 642.807 0.875 629V342.021C0.875 337.263 2.23284 332.604 4.78903 328.59L22.375 300.981L3.3168 261.086C1.70931 257.721 0.875 254.039 0.875 250.309V25Z" fill="#FFDA5D"/>
<line x1="27.8629" y1="303.645" x2="543.887" y2="303.645" stroke="black" stroke-dasharray="15 15"/>
</svg>
