<svg width="295" height="26" viewBox="0 0 295 26" fill="none" xmlns="http://www.w3.org/2000/svg">
<path d="M3.86 16.68L4.42 15.16H37.74L37.14 16.68H3.86ZM4.86 14L5.38 12.64H38.7L38.18 14H4.86ZM17.02 10.64H28.62L28.82 10.12H39.66L39.18 11.36H5.9L6.38 10.12H17.22L17.02 10.64ZM7.94 6.04L8.3 5.08H41.62L41.26 6.04H7.94ZM8.22 3.36L7.58 2.6H42.54L42.26 3.36H8.22ZM43.5 0.159999L43.26 0.719999H6.06L5.62 0.159999H43.5ZM22.26 24.64L21.7 22.72H32.62L33.14 24.64H22.26ZM0.82 24.64L1.54 22.72H12.38L11.66 24.64H0.82ZM21.46 22L20.94 20.2H31.94L32.42 22H21.46ZM1.82 22L2.5 20.2H13.34L12.66 22H1.82ZM20.66 19.32L20.18 17.68H31.22L31.7 19.32H20.66ZM2.86 19.32L3.46 17.68H14.34L13.7 19.32H2.86ZM29.38 8.68L29.78 7.6H40.66L40.22 8.68H29.38ZM6.94 8.68L7.34 7.6H18.18L17.78 8.68H6.94ZM22.66 26L22.42 25.24H33.3L33.54 26H22.66ZM11.14 26H0.3L0.58 25.24H11.42L11.14 26ZM40.4294 24.64L41.1494 22.72H74.4694L73.7094 24.64H40.4294ZM41.4294 22L42.1094 20.2H75.4294L74.7494 22H41.4294ZM47.5494 6.04L47.9094 5.08H81.2294L80.8694 6.04H47.5494ZM47.8294 3.36L47.1894 2.6H82.1494L81.8694 3.36H47.8294ZM73.1894 26H39.9094L40.1894 25.24H73.4694L73.1894 26ZM45.2294 0.159999H83.1094L82.8694 0.719999H45.6694L45.2294 0.159999ZM64.8694 19.32L65.5094 17.68H76.3894L75.7494 19.32H64.8694ZM42.4694 19.32L43.0694 17.68H53.9094L53.2694 19.32H42.4694ZM65.9094 16.68L66.4694 15.16H77.3494L76.7494 16.68H65.9094ZM43.4694 16.68L44.0294 15.16H54.8694L54.3094 16.68H43.4694ZM66.9094 14L67.4294 12.64H78.3094L77.7894 14H66.9094ZM44.4694 14L44.9894 12.64H55.8294L55.3094 14H44.4694ZM67.9494 11.36L68.4294 10.12H79.2694L78.7894 11.36H67.9494ZM45.5094 11.36L45.9894 10.12H56.8294L56.3494 11.36H45.5094ZM68.9894 8.68L69.3894 7.6H80.2694L79.8294 8.68H68.9894ZM46.5494 8.68L46.9494 7.6H57.7894L57.3894 8.68H46.5494ZM83.1178 16.68L83.6778 15.16H116.998L116.398 16.68H83.1178ZM84.1178 14L84.6378 12.64H117.958L117.438 14H84.1178ZM93.5578 17.72L92.9578 19.32H82.1178L82.7178 17.68H116.038L115.398 19.32H104.558L105.158 17.72H93.5578ZM87.1978 6.04L87.5578 5.08H120.878L120.518 6.04H87.1978ZM96.0378 11.32H107.638L108.078 10.12H118.918L118.438 11.36H85.1578L85.6378 10.12H96.4778L96.0378 11.32ZM87.4778 3.36L86.8378 2.6H121.798L121.518 3.36H87.4778ZM122.758 0.159999L122.518 0.719999H85.3178L84.8778 0.159999H122.758ZM102.518 24.64L103.238 22.72H114.118L113.358 24.64H102.518ZM80.0778 24.64L80.7978 22.72H91.6378L90.9178 24.64H80.0778ZM103.518 22L104.198 20.2H115.078L114.398 22H103.518ZM81.0778 22L81.7578 20.2H92.5978L91.9178 22H81.0778ZM108.638 8.68L109.038 7.6H119.918L119.478 8.68H108.638ZM86.1978 8.68L86.5978 7.6H97.4378L97.0378 8.68H86.1978ZM112.838 26H101.998L102.278 25.24H113.118L112.838 26ZM90.3978 26H79.5578L79.8378 25.24H90.6778L90.3978 26ZM120.687 22L121.367 20.2H152.127L149.127 22H120.687ZM119.687 24.64L120.407 22.72H147.927L144.727 24.64H119.687ZM126.807 6.04L127.167 5.08H160.487L160.127 6.04H126.807ZM127.087 3.36L126.447 2.6H161.407L161.127 3.36H127.087ZM155.447 18.2L153.567 19.32H138.727L141.327 17.68H155.647L155.447 18.2ZM162.367 0.159999L162.127 0.719999H124.927L124.487 0.159999H162.367ZM142.887 16.68L145.287 15.16H156.607L156.007 16.68H142.887ZM119.167 26L119.447 25.24H143.727L142.487 26H119.167ZM121.727 19.32L122.327 17.68H133.167L132.527 19.32H121.727ZM122.727 16.68L123.287 15.16H134.127L133.567 16.68H122.727ZM146.167 14L146.687 12.64H157.567L157.047 14H146.167ZM123.727 14L124.247 12.64H135.087L134.567 14H123.727ZM147.207 11.36L147.687 10.12H158.527L158.047 11.36H147.207ZM124.767 11.36L125.247 10.12H136.087L135.607 11.36H124.767ZM148.247 8.68L148.647 7.6H159.527L159.087 8.68H148.247ZM125.807 8.68L126.207 7.6H137.047L136.647 8.68H125.807ZM166.456 6.04L166.816 5.08H213.656L213.296 6.04H166.456ZM166.736 3.36L166.096 2.6H214.576L214.296 3.36H166.736ZM215.536 0.159999L215.296 0.719999H164.576L164.136 0.159999H215.536ZM159.336 24.64L160.056 22.72H170.936L170.176 24.64H159.336ZM195.296 24.64L196.056 22.72H206.896L206.136 24.64H195.296ZM177.296 24.64L178.056 22.72H188.896L188.136 24.64H177.296ZM160.336 22L161.016 20.2H171.896L171.216 22H160.336ZM178.336 22L179.016 20.2H189.856L189.176 22H178.336ZM196.336 22L197.016 20.2H207.856L207.176 22H196.336ZM161.376 19.32L161.976 17.68H172.856L172.256 19.32H161.376ZM179.376 19.32L179.976 17.68H190.816L190.216 19.32H179.376ZM197.376 19.32L197.976 17.68H208.816L208.176 19.32H197.376ZM162.376 16.68L162.936 15.16H173.816L173.256 16.68H162.376ZM180.376 16.68L180.936 15.16H191.776L191.216 16.68H180.376ZM198.376 16.68L198.936 15.16H209.776L209.176 16.68H198.376ZM163.376 14L163.896 12.64H174.776L174.256 14H163.376ZM181.376 14L181.896 12.64H192.736L192.216 14H181.376ZM199.376 14L199.896 12.64H210.736L210.216 14H199.376ZM164.416 11.36L164.896 10.12H175.776L175.296 11.36H164.416ZM182.416 11.36L182.896 10.12H193.736L193.256 11.36H182.416ZM200.416 11.36L200.896 10.12H211.696L211.216 11.36H200.416ZM165.456 8.68L165.856 7.6H176.736L176.336 8.68H165.456ZM183.456 8.68L183.856 7.6H194.696L194.296 8.68H183.456ZM201.456 8.68L201.856 7.6H212.696L212.256 8.68H201.456ZM205.616 26H194.776L195.056 25.24H205.896L205.616 26ZM169.656 26H158.816L159.096 25.24H169.936L169.656 26ZM187.616 26H176.776L177.056 25.24H187.896L187.616 26ZM215.54 16.68L216.1 15.16H249.42L248.82 16.68H215.54ZM216.54 14L217.06 12.64H250.38L249.86 14H216.54ZM225.98 17.72L225.38 19.32H214.54L215.14 17.68H248.46L247.82 19.32H236.98L237.58 17.72H225.98ZM219.62 6.04L219.98 5.08H253.3L252.94 6.04H219.62ZM228.46 11.32H240.06L240.5 10.12H251.34L250.86 11.36H217.58L218.06 10.12H228.9L228.46 11.32ZM219.9 3.36L219.26 2.6H254.22L253.94 3.36H219.9ZM255.18 0.159999L254.94 0.719999H217.74L217.3 0.159999H255.18ZM234.94 24.64L235.66 22.72H246.54L245.78 24.64H234.94ZM212.5 24.64L213.22 22.72H224.06L223.34 24.64H212.5ZM235.94 22L236.62 20.2H247.5L246.82 22H235.94ZM213.5 22L214.18 20.2H225.02L224.34 22H213.5ZM241.06 8.68L241.46 7.6H252.34L251.9 8.68H241.06ZM218.62 8.68L219.02 7.6H229.86L229.46 8.68H218.62ZM245.26 26H234.42L234.7 25.24H245.54L245.26 26ZM222.82 26H211.98L212.26 25.24H223.1L222.82 26ZM255.149 16.68L255.709 15.16H288.989L288.429 16.68H255.149ZM256.149 14L256.669 12.64H289.949L289.429 14H256.149ZM259.229 6.04L259.589 5.08H292.869L292.509 6.04H259.229ZM268.069 11.32H279.669L280.109 10.12H290.949L290.469 11.36H257.189L257.669 10.12H268.509L268.069 11.32ZM259.509 3.36L258.869 2.6H293.829L293.549 3.36H259.509ZM294.789 0.159999L294.549 0.719999H257.349L256.909 0.159999H294.789ZM252.109 24.64L252.829 22.72H263.669L262.949 24.64H252.109ZM253.109 22L253.789 20.2H264.629L263.949 22H253.109ZM265.589 17.72L264.989 19.32H254.149L254.749 17.68H288.029V17.72H265.589ZM258.229 8.68L258.629 7.6H269.469L269.069 8.68H258.229ZM280.669 8.68L281.069 7.6H291.909L291.509 8.68H280.669ZM262.429 26H251.589L251.869 25.24H262.709L262.429 26Z" fill="#C9A732"/>
</svg>
