<svg width="17" height="18" viewBox="0 0 17 18" fill="none" xmlns="http://www.w3.org/2000/svg">
<path d="M4.19999 8.2V5C4.19999 3.93913 4.62142 2.92172 5.37156 2.17157C6.12171 1.42143 7.13912 1 8.19999 1C9.26085 1 10.2783 1.42143 11.0284 2.17157C11.7786 2.92172 12.2 3.93913 12.2 5V8.2M3.99998 17H12.4C14.0568 17 15.4 15.6569 15.4 14V11.2C15.4 9.54315 14.0568 8.2 12.4 8.2H3.99999C2.34314 8.2 0.999991 9.54314 0.999986 11.2L0.999978 14C0.999973 15.6568 2.34312 17 3.99998 17Z" stroke="#FFDB60" stroke-width="1.5" stroke-linecap="round" stroke-linejoin="round"/>
</svg>
