<svg width="15" height="16" viewBox="0 0 15 16" fill="none" xmlns="http://www.w3.org/2000/svg">
<path d="M6.2154 0.000298389C6.07636 -0.000193798 5.9369 -5.31741e-05 5.79705 0.000544481C5.12391 0.00367338 4.44002 0.0213569 3.75029 0.0469506L3.94983 0.922094C4.66811 0.840883 5.45557 0.780414 6.24297 0.75018C6.66955 0.733797 7.09354 0.725149 7.50479 0.727328C8.7386 0.733762 9.85805 0.837367 10.5905 1.12115L10.9036 1.24258L10.7638 1.54791C9.74214 3.7798 9.50585 5.93301 9.66595 8.04569C9.74498 5.53842 10.7872 3.30839 12.1554 0.449559C10.2936 0.140185 8.30105 0.00722405 6.2154 0.000263118V0.000298389ZM7.20097 1.36401C6.89371 1.36425 6.58047 1.37048 6.26726 1.3825C4.80223 1.43875 3.3423 1.61066 2.3908 1.80775C3.45368 3.77927 4.31349 5.75533 4.86871 7.68172C4.93776 7.6794 5.00691 7.67996 5.07592 7.6833C5.21718 7.69022 5.35689 7.70938 5.4934 7.7392C4.92827 5.93227 4.28456 4.26576 3.48437 2.60179L3.30356 2.22583L3.71439 2.15312C4.74644 1.97038 5.81167 1.89965 6.82551 1.89933C6.89308 1.89933 6.96051 1.89958 7.02758 1.90017C7.67179 1.9058 8.29264 1.93913 8.86787 1.9893L9.25649 2.02322L9.14314 2.39647C8.48572 4.5608 8.35695 6.88515 8.72865 9.09661C8.73484 9.10234 8.7411 9.10804 8.74714 9.11384C8.8812 9.06687 9.0066 9.01899 9.12349 8.9678C8.83331 6.59848 8.96188 4.15411 10.0456 1.61309C9.44085 1.459 8.51895 1.37846 7.50595 1.3658C7.40428 1.36455 7.30265 1.36396 7.20097 1.36405V1.36401ZM12.2967 1.62364C11.2084 3.92834 10.4354 5.77523 10.3087 7.76904C11.0132 5.42054 12.3748 3.31528 13.9264 1.96272C13.3878 1.82837 12.8442 1.71526 12.2967 1.62364ZM1.92698 2.27504C1.26745 2.41103 0.623179 2.58365 0 2.82215C0.303257 3.08511 0.851483 3.57431 1.51664 4.22449C1.82278 3.90939 2.135 3.59808 2.46065 3.315C2.28818 2.96558 2.11025 2.61891 1.92698 2.27504ZM6.91997 2.53808C6.44114 2.53576 5.951 2.54947 5.45909 2.58354C5.40748 3.06455 5.123 3.51455 4.78321 3.95709C5.32571 5.2392 5.79423 6.54751 6.21604 7.93656C6.86203 8.12711 7.50114 8.35236 8.01885 8.62225C7.82654 7.12959 7.85284 5.60012 8.10252 4.1044C7.64953 3.63647 7.41356 3.11686 7.39465 2.54557C7.23645 2.54135 7.07821 2.53886 6.91997 2.53808ZM13.319 3.48677C12.4496 4.51685 11.6835 5.80698 11.1615 7.21024C12.12 5.84681 13.2986 4.78333 14.5533 4.03212C14.1445 3.84435 13.7331 3.66255 13.319 3.48677ZM2.74616 3.90721C2.23309 4.37085 1.72613 4.92733 1.19819 5.45749C2.33335 6.13217 3.30022 6.93117 4.08895 7.83616C4.13792 7.81767 4.18738 7.80104 4.23713 7.78588C3.86806 6.51689 3.36227 5.21832 2.74616 3.90721ZM10.9512 8.29301C10.3747 8.98868 9.83199 9.35596 9.08471 9.64899C9.16877 9.97313 9.04393 10.3453 8.75657 10.6299C8.58753 10.7973 8.37512 10.9881 8.06455 11.112C8.10938 11.1386 8.15508 11.1635 8.20166 11.1868C8.63633 11.4037 9.40425 11.3338 10.1177 11.0093C10.8289 10.6859 11.4642 10.1272 11.6997 9.5612C11.8177 9.24304 11.7335 9.0771 11.5268 8.83375C11.3797 8.66061 11.1649 8.48606 10.9512 8.29305V8.29301ZM4.97182 8.31361C4.59513 8.31017 4.21256 8.41887 3.8964 8.65674C3.44675 8.99505 3.10011 9.59836 3.09702 10.6232V10.6302L3.09666 10.6372C2.99401 12.7951 3.15291 13.7907 3.46774 14.3309C3.74561 14.8077 4.20778 15.0359 4.88383 15.4557C4.91603 15.3711 4.94957 15.2671 4.98104 15.1358C5.06109 14.8019 5.12732 14.3433 5.1693 13.8359C5.25329 12.8214 5.24102 11.6032 5.10057 10.7266L5.02635 10.2628L5.48395 10.3681C6.59541 10.6238 7.23121 10.654 7.60035 10.5889C7.96956 10.5237 8.09468 10.3948 8.31124 10.1803C8.5148 9.97875 8.511 9.90623 8.4679 9.79281C8.42476 9.67936 8.25172 9.4924 7.95813 9.31353C7.37092 8.95578 6.37312 8.62408 5.44046 8.37672C5.28749 8.33622 5.13006 8.31502 4.97182 8.31361ZM11.6199 10.754C11.2678 11.0969 10.8347 11.3784 10.3797 11.5854C9.64198 11.9208 8.83057 12.0743 8.1574 11.8509C7.91974 11.9393 7.78168 12.041 7.71204 12.1251C7.61649 12.2406 7.61051 12.3255 7.64289 12.4471C7.67523 12.5688 7.77173 12.7132 7.89106 12.8171C8.01034 12.921 8.15213 12.975 8.20602 12.9776C9.85112 13.0557 10.5631 12.5836 11.4501 12.036C11.7088 11.8763 11.8078 11.5528 11.783 11.2298C11.7706 11.0683 11.7236 10.9165 11.6694 10.821C11.6559 10.7966 11.6392 10.7741 11.6199 10.754ZM5.77736 11.0738C5.87323 11.9551 5.87481 12.9833 5.79993 13.8882C5.75609 14.418 5.68831 14.8999 5.59641 15.2833C5.55644 15.4502 5.51246 15.5981 5.4593 15.7284L10.6166 15.5011C10.5584 15.2849 10.499 15.0678 10.4397 14.8506C10.2416 14.9166 10.0391 14.9685 9.83365 15.0062L9.83519 15.0318L9.54284 15.05C9.3628 15.0716 9.17538 15.0835 8.98093 15.0849L6.03273 15.2681L6.12038 14.86C6.39976 13.559 6.42553 12.4135 6.2532 11.1604C6.09401 11.1346 5.93539 11.1058 5.77732 11.0738H5.77736ZM6.90137 11.2385C7.04017 12.3611 7.02347 13.4326 6.81679 14.5853L7.49404 14.5433C7.38783 14.3866 7.31485 14.2098 7.27958 14.0238C7.23402 13.7819 7.25937 13.5127 7.41761 13.29C7.4246 13.2802 7.43216 13.2707 7.43965 13.2612C7.25522 13.0908 7.10117 12.8723 7.03135 12.6099C6.95703 12.3307 7.00343 11.9887 7.2246 11.7215C7.29769 11.6333 7.38604 11.5536 7.48978 11.4819C7.39802 11.4088 7.31759 11.3313 7.24812 11.2505C7.1404 11.2513 7.02505 11.2473 6.90137 11.2385ZM11.5654 12.7075C10.7408 13.2086 9.81428 13.6875 8.176 13.6097C8.12252 13.6071 8.06937 13.5999 8.01716 13.5881C7.97381 13.6075 7.95068 13.6323 7.93342 13.6565C7.89956 13.7042 7.87956 13.7901 7.90146 13.9066C7.94534 14.1396 8.16601 14.3949 8.3715 14.4188C9.82644 14.588 10.8317 14.112 11.4421 13.5583C11.7233 13.3031 11.7257 13.1399 11.6843 12.9624C11.6636 12.8737 11.6179 12.7877 11.5654 12.7075ZM11.3305 14.4323C11.2328 14.4935 11.1325 14.5505 11.03 14.6032C11.088 14.8159 11.1461 15.0286 11.2035 15.2414L11.9039 15.1158C11.7232 14.9616 11.5818 14.801 11.4683 14.6413C11.4176 14.57 11.3729 14.5007 11.3305 14.4323Z" fill="#898D8F"/>
</svg>
